<?xml version="1.0" encoding="UTF-8"?>
<svg id="Layer_1" data-name="Layer 1" xmlns="http://www.w3.org/2000/svg" xmlns:xlink="http://www.w3.org/1999/xlink" viewBox="0 0 725.28 220.06">
  <defs>
    <style>
      .cls-1 {
        fill: url(#Degradado_sin_nombre_13);
        stroke-width: 0px;
      }
    </style>
    <linearGradient id="Degradado_sin_nombre_13" data-name="Degradado sin nombre 13" x1="130.86" y1="304.52" x2="594.42" y2="-84.45" gradientUnits="userSpaceOnUse">
      <stop offset=".05" stop-color="#d91a9a"/>
      <stop offset=".19" stop-color="#ae2ead"/>
      <stop offset=".39" stop-color="#7b46c4"/>
      <stop offset=".56" stop-color="#5658d4"/>
      <stop offset=".7" stop-color="#3f63df"/>
      <stop offset=".79" stop-color="#3767e3"/>
    </linearGradient>
  </defs>
  <path class="cls-1" d="m609.59,0C562.85,0,522.58,26.37,504.33,64.32c8.98,11.78,15.78,21.91,21.25,30.83l.03.04c7.96-36.23,42.86-64.74,83.99-64.74,47,0,85.25,35.7,85.25,79.59s-38.24,79.59-85.25,79.59c-30.67,0-57.61-15.2-72.63-37.96l.04-.02c-12.32-18.93-19.48-41.36-52.56-82.72-26.79-33.49-54.21-49.29-63.67-54.09C403.71,5.4,383.89,0,362.74,0,320.29,0,283.18,21.75,263.05,54.17h0s-10.68,16.14-16.83,27.61l-14.84,22.97-.13.21C228.47,46.55,177.79,0,115.69,0S0,49.26,0,110.03s51.79,110.03,115.69,110.03c19.75,0,38.34-4.71,54.6-13.01v.02s34.03-14.38,67.11-55.74c33.08-41.36,40.25-63.79,52.56-82.72h0s0,0,0,0c14.99-22.87,42-38.17,72.77-38.17,47,0,85.25,35.7,85.25,79.59s-38.24,79.59-85.25,79.59c-40.92,0-76.78-25.81-84.97-61.76-5.23,8.38-11.65,17.82-19.9,28.65,18.42,37.54,58.45,63.55,104.88,63.55,62.04,0,112.66-46.44,115.55-104.77l.12.2,14.84,22.97c6.16,11.47,16.79,27.65,16.79,27.65,20.16,32.29,57.2,53.94,99.55,53.94,63.89,0,115.69-49.26,115.69-110.03S673.48,0,609.59,0ZM115.69,189.62c-47,0-85.25-35.7-85.25-79.59S68.68,30.44,115.69,30.44s85.25,35.7,85.25,79.59-38.24,79.59-85.25,79.59Z"/>
</svg>